<svg xmlns="http://www.w3.org/2000/svg" viewBox="0 0 1273.909917 883.323974" fill="none" role="img" aria-label="XOLID (preview)">
  <rect x="0" y="0" width="1273.909917" height="883.323974" fill="#000000"/>
  <g fill="#FFFFFF" transform="translate(-23.866412,907.618166) scale(0.100000,-0.100000)">
    <path d="M11089 9066 c-60 -16 -132 -71 -543 -411 -67 -56 -172 -141 -234
-190 -63 -50 -166 -132 -230 -183 -64 -50 -128 -100 -142 -110 -50 -34 -186
-138 -285 -217 -55 -44 -251 -194 -435 -332 -444 -334 -565 -427 -625 -477
-27 -23 -81 -64 -120 -91 -38 -27 -88 -63 -110 -81 -22 -18 -76 -56 -120 -86
-119 -80 -166 -114 -284 -206 -58 -45 -128 -99 -155 -120 -27 -20 -77 -59
-112 -87 -35 -27 -76 -59 -91 -70 -137 -98 -209 -148 -236 -161 -18 -9 -41
-24 -52 -34 -38 -34 -61 -33 -123 1 -96 55 -228 146 -432 299 -108 81 -274
202 -370 269 -96 67 -186 131 -200 142 -14 10 -49 36 -78 56 -29 21 -109 79
-177 128 -68 50 -146 105 -172 123 -26 18 -95 66 -153 108 -58 41 -127 90
-155 108 -27 19 -108 75 -180 125 -71 50 -161 112 -200 138 -38 26 -86 59
-105 74 -101 76 -272 200 -320 232 -101 68 -204 137 -330 222 -196 132 -639
431 -814 548 -245 164 -371 219 -570 247 -86 13 -299 -19 -391 -57 -277 -116
-485 -278 -485 -377 0 -71 59 -129 372 -369 48 -36 111 -85 140 -107 29 -23
87 -67 128 -98 41 -31 151 -119 245 -195 93 -76 208 -169 254 -205 45 -37 141
-114 211 -172 70 -58 192 -157 271 -220 261 -210 493 -402 539 -445 25 -23 95
-80 155 -126 61 -46 180 -142 266 -214 188 -156 242 -200 375 -302 56 -43 151
-118 212 -168 60 -49 151 -121 202 -160 106 -80 428 -337 605 -483 137 -112
144 -127 88 -169 -21 -15 -148 -116 -283 -224 -135 -107 -272 -215 -305 -240
-33 -24 -112 -85 -175 -135 -164 -129 -272 -211 -370 -279 -47 -33 -119 -87
-160 -120 -99 -80 -309 -239 -390 -295 -36 -24 -132 -95 -215 -157 -82 -61
-186 -138 -230 -170 -44 -33 -134 -99 -200 -148 -66 -48 -135 -99 -153 -112
-50 -37 -167 -118 -272 -188 -119 -80 -220 -151 -402 -284 -79 -57 -161 -117
-183 -133 -22 -16 -71 -52 -110 -81 -38 -29 -159 -110 -267 -182 -109 -71
-287 -192 -395 -269 -179 -125 -404 -276 -570 -381 -55 -35 -243 -163 -403
-273 -30 -21 -146 -99 -257 -174 -112 -76 -215 -146 -230 -156 -16 -11 -55
-37 -88 -58 -226 -143 -269 -226 -189 -360 106 -177 479 -410 726 -454 35 -6
88 -19 118 -28 97 -30 413 -23 564 12 175 40 360 119 599 253 45 25 101 56
125 69 23 13 55 32 70 42 15 11 79 52 142 92 121 77 269 176 565 377 99 67
257 174 350 237 215 146 385 268 500 360 50 39 117 91 150 116 33 25 141 108
240 185 99 77 200 155 225 173 267 196 484 363 625 481 354 296 493 409 725
584 118 90 229 180 463 377 88 74 188 157 221 184 34 27 90 74 126 106 36 31
126 105 200 164 74 59 157 125 184 147 78 63 72 65 320 -123 60 -46 139 -108
175 -139 37 -31 105 -87 152 -125 273 -221 346 -278 454 -359 66 -49 163 -123
215 -165 52 -42 173 -139 268 -216 321 -258 409 -329 587 -469 97 -77 207
-164 243 -193 37 -29 101 -78 142 -110 41 -31 152 -118 245 -193 94 -74 201
-159 239 -187 37 -29 111 -88 165 -132 191 -157 576 -462 659 -522 96 -70 730
-576 932 -743 127 -106 225 -175 248 -175 23 0 96 45 192 118 187 142 278 253
434 525 76 134 121 325 113 479 -13 213 -10 210 -351 463 -29 22 -91 72 -137
111 -85 71 -388 303 -444 338 -16 11 -57 41 -90 68 -165 132 -290 230 -380
298 -55 41 -125 95 -155 121 -56 47 -97 79 -255 199 -49 38 -147 113 -216 167
-70 54 -164 126 -210 159 -46 34 -116 88 -156 120 -151 124 -210 171 -293 232
-117 86 -243 182 -363 277 -56 45 -167 130 -245 190 -188 144 -276 212 -406
315 -59 47 -136 108 -171 135 -34 28 -82 65 -106 83 -198 150 -389 298 -468
361 -51 42 -109 86 -127 99 -42 28 -45 63 -8 89 82 58 175 131 303 237 79 67
180 150 225 185 45 35 113 92 151 125 110 96 183 157 260 216 185 142 341 274
580 491 264 238 502 454 631 569 404 362 1198 1153 1284 1280 142 210 117 320
-109 464 -225 145 -489 221 -632 182z"/>
    <path d="M1685 7312 c-52 -24 -123 -105 -129 -146 -3 -17 -8 -71 -11 -121 -3
-49 -12 -133 -20 -185 -8 -52 -22 -183 -30 -290 -8 -107 -22 -244 -30 -305 -8
-60 -21 -211 -30 -334 -9 -123 -22 -269 -30 -325 -7 -56 -19 -182 -25 -281 -6
-99 -20 -286 -31 -415 -25 -301 -26 -321 -45 -650 -8 -151 -19 -340 -24 -420
-19 -285 -13 -494 20 -730 35 -261 63 -354 123 -411 69 -68 76 -67 345 64 124
60 199 99 437 232 22 12 72 41 110 65 39 23 104 63 145 87 41 25 93 57 115 71
59 38 103 64 175 107 74 43 305 193 365 236 22 15 90 62 150 104 61 41 137 95
170 119 33 24 106 75 162 113 56 37 177 120 267 183 91 63 208 144 261 180
127 87 357 252 420 301 27 22 79 60 115 86 200 143 268 265 226 407 -21 68
-55 107 -169 193 -192 144 -312 236 -367 283 -50 42 -192 147 -304 225 -24 17
-151 111 -282 210 -262 198 -403 301 -449 331 -38 24 -265 195 -325 244 -69
57 -135 107 -160 120 -13 7 -66 46 -119 87 -53 42 -112 86 -131 99 -19 13 -84
59 -145 103 -227 164 -386 267 -534 345 -71 38 -159 45 -216 18z"/>
  </g>
</svg>
